<mxfile host="app.diagrams.net" modified="2024-07-08T07:21:10.205Z" agent="Mozilla/5.0 (Windows NT 10.0; Win64; x64) AppleWebKit/537.36 (KHTML, like Gecko) Chrome/126.0.0.0 Safari/537.36" etag="bt7UBeEdTELhelnEl1KW" version="24.6.4" type="github">
  <diagram name="페이지-1" id="Jx4580qJFZ8ncAXcpxec">
    <mxGraphModel dx="739" dy="671" grid="1" gridSize="10" guides="1" tooltips="1" connect="1" arrows="1" fold="1" page="1" pageScale="1" pageWidth="1654" pageHeight="2336" math="0" shadow="0">
      <root>
        <mxCell id="0" />
        <mxCell id="1" parent="0" />
        <mxCell id="iTNY1uVTKkM6Jr3xk4j8-117" value="" style="shape=folder;fontStyle=1;spacingTop=10;tabWidth=112;tabHeight=20;tabPosition=left;html=1;whiteSpace=wrap;" vertex="1" parent="1">
          <mxGeometry x="200" y="281" width="440" height="200" as="geometry" />
        </mxCell>
        <mxCell id="iTNY1uVTKkM6Jr3xk4j8-87" style="edgeStyle=orthogonalEdgeStyle;rounded=0;orthogonalLoop=1;jettySize=auto;html=1;exitX=1;exitY=0.5;exitDx=0;exitDy=0;entryX=0;entryY=0.5;entryDx=0;entryDy=0;" edge="1" parent="1" source="iTNY1uVTKkM6Jr3xk4j8-59" target="iTNY1uVTKkM6Jr3xk4j8-63">
          <mxGeometry relative="1" as="geometry" />
        </mxCell>
        <mxCell id="iTNY1uVTKkM6Jr3xk4j8-59" value="Capec.json" style="whiteSpace=wrap;html=1;rounded=1;" vertex="1" parent="1">
          <mxGeometry x="224" y="422" width="98" height="40" as="geometry" />
        </mxCell>
        <mxCell id="iTNY1uVTKkM6Jr3xk4j8-63" value="TTP" style="whiteSpace=wrap;html=1;rounded=1;" vertex="1" parent="1">
          <mxGeometry x="392" y="422" width="98" height="40" as="geometry" />
        </mxCell>
        <mxCell id="iTNY1uVTKkM6Jr3xk4j8-74" value="CVE Detail DB" style="shape=datastore;whiteSpace=wrap;html=1;" vertex="1" parent="1">
          <mxGeometry x="218" y="553" width="110" height="58" as="geometry" />
        </mxCell>
        <mxCell id="iTNY1uVTKkM6Jr3xk4j8-75" value="&lt;span style=&quot;font-weight: normal;&quot;&gt;Search for CVEs in NVD&lt;/span&gt;" style="swimlane;childLayout=stackLayout;horizontal=1;fillColor=none;horizontalStack=1;resizeParent=1;resizeParentMax=0;resizeLast=0;collapsible=0;strokeColor=none;stackBorder=10;stackSpacing=-12;resizable=1;align=center;points=[];whiteSpace=wrap;html=1;startSize=10;" vertex="1" parent="1">
          <mxGeometry x="209" y="322" width="296" height="76" as="geometry" />
        </mxCell>
        <mxCell id="iTNY1uVTKkM6Jr3xk4j8-76" value="Get CVSS" style="shape=step;perimeter=stepPerimeter;fixedSize=1;points=[];whiteSpace=wrap;html=1;" vertex="1" parent="iTNY1uVTKkM6Jr3xk4j8-75">
          <mxGeometry x="10" y="20" width="100" height="46" as="geometry" />
        </mxCell>
        <mxCell id="iTNY1uVTKkM6Jr3xk4j8-77" value="Get CPE" style="shape=step;perimeter=stepPerimeter;fixedSize=1;points=[];whiteSpace=wrap;html=1;" vertex="1" parent="iTNY1uVTKkM6Jr3xk4j8-75">
          <mxGeometry x="98" y="20" width="100" height="46" as="geometry" />
        </mxCell>
        <mxCell id="iTNY1uVTKkM6Jr3xk4j8-78" value="Get CWE" style="shape=step;perimeter=stepPerimeter;fixedSize=1;points=[];whiteSpace=wrap;html=1;" vertex="1" parent="iTNY1uVTKkM6Jr3xk4j8-75">
          <mxGeometry x="186" y="20" width="100" height="46" as="geometry" />
        </mxCell>
        <mxCell id="iTNY1uVTKkM6Jr3xk4j8-95" value="" style="endArrow=none;dashed=1;html=1;rounded=0;entryX=0.48;entryY=0.982;entryDx=0;entryDy=0;entryPerimeter=0;exitX=0.5;exitY=0;exitDx=0;exitDy=0;" edge="1" parent="1" source="iTNY1uVTKkM6Jr3xk4j8-59" target="iTNY1uVTKkM6Jr3xk4j8-78">
          <mxGeometry width="50" height="50" relative="1" as="geometry">
            <mxPoint x="429" y="402" as="sourcePoint" />
            <mxPoint x="479" y="352" as="targetPoint" />
            <Array as="points">
              <mxPoint x="273" y="402" />
              <mxPoint x="443" y="402" />
            </Array>
          </mxGeometry>
        </mxCell>
        <mxCell id="iTNY1uVTKkM6Jr3xk4j8-107" value="Items with&amp;nbsp; None&amp;nbsp;" style="html=1;verticalAlign=bottom;endArrow=block;curved=0;rounded=0;entryX=1;entryY=0;entryDx=0;entryDy=5;exitX=0.002;exitY=0.172;exitDx=0;exitDy=0;exitPerimeter=0;" edge="1" parent="1" source="iTNY1uVTKkM6Jr3xk4j8-112">
          <mxGeometry relative="1" as="geometry">
            <mxPoint x="521" y="549" as="sourcePoint" />
            <mxPoint x="361" y="549" as="targetPoint" />
          </mxGeometry>
        </mxCell>
        <mxCell id="iTNY1uVTKkM6Jr3xk4j8-110" value="Return" style="endArrow=open;endSize=12;dashed=1;html=1;rounded=0;entryX=0;entryY=0.7;entryDx=0;entryDy=0;" edge="1" parent="1" target="iTNY1uVTKkM6Jr3xk4j8-112">
          <mxGeometry width="160" relative="1" as="geometry">
            <mxPoint x="361" y="601" as="sourcePoint" />
            <mxPoint x="521" y="601" as="targetPoint" />
          </mxGeometry>
        </mxCell>
        <mxCell id="iTNY1uVTKkM6Jr3xk4j8-111" value="Duplicate None items" style="text;html=1;align=center;verticalAlign=middle;resizable=0;points=[];autosize=1;strokeColor=none;fillColor=none;" vertex="1" parent="1">
          <mxGeometry x="371" y="602" width="140" height="30" as="geometry" />
        </mxCell>
        <mxCell id="iTNY1uVTKkM6Jr3xk4j8-112" value="CTI UPDATE" style="shape=datastore;whiteSpace=wrap;html=1;" vertex="1" parent="1">
          <mxGeometry x="530" y="531" width="110" height="100" as="geometry" />
        </mxCell>
        <mxCell id="iTNY1uVTKkM6Jr3xk4j8-119" value="Update Process" style="text;html=1;align=center;verticalAlign=middle;resizable=0;points=[];autosize=1;strokeColor=none;fillColor=none;" vertex="1" parent="1">
          <mxGeometry x="200" y="276" width="110" height="30" as="geometry" />
        </mxCell>
        <mxCell id="iTNY1uVTKkM6Jr3xk4j8-142" value="Table" style="shape=table;startSize=30;container=1;collapsible=1;childLayout=tableLayout;fixedRows=1;rowLines=0;fontStyle=1;align=center;resizeLast=1;html=1;" vertex="1" parent="1">
          <mxGeometry x="510" y="331" width="110" height="130" as="geometry" />
        </mxCell>
        <mxCell id="iTNY1uVTKkM6Jr3xk4j8-143" value="" style="shape=tableRow;horizontal=0;startSize=0;swimlaneHead=0;swimlaneBody=0;fillColor=none;collapsible=0;dropTarget=0;points=[[0,0.5],[1,0.5]];portConstraint=eastwest;top=0;left=0;right=0;bottom=1;" vertex="1" parent="iTNY1uVTKkM6Jr3xk4j8-142">
          <mxGeometry y="30" width="110" height="20" as="geometry" />
        </mxCell>
        <mxCell id="iTNY1uVTKkM6Jr3xk4j8-144" value="PK" style="shape=partialRectangle;connectable=0;fillColor=none;top=0;left=0;bottom=0;right=0;fontStyle=1;overflow=hidden;whiteSpace=wrap;html=1;" vertex="1" parent="iTNY1uVTKkM6Jr3xk4j8-143">
          <mxGeometry width="30" height="20" as="geometry">
            <mxRectangle width="30" height="20" as="alternateBounds" />
          </mxGeometry>
        </mxCell>
        <mxCell id="iTNY1uVTKkM6Jr3xk4j8-145" value="cve_id" style="shape=partialRectangle;connectable=0;fillColor=none;top=0;left=0;bottom=0;right=0;align=left;spacingLeft=6;fontStyle=5;overflow=hidden;whiteSpace=wrap;html=1;" vertex="1" parent="iTNY1uVTKkM6Jr3xk4j8-143">
          <mxGeometry x="30" width="80" height="20" as="geometry">
            <mxRectangle width="80" height="20" as="alternateBounds" />
          </mxGeometry>
        </mxCell>
        <mxCell id="iTNY1uVTKkM6Jr3xk4j8-146" value="" style="shape=tableRow;horizontal=0;startSize=0;swimlaneHead=0;swimlaneBody=0;fillColor=none;collapsible=0;dropTarget=0;points=[[0,0.5],[1,0.5]];portConstraint=eastwest;top=0;left=0;right=0;bottom=0;" vertex="1" parent="iTNY1uVTKkM6Jr3xk4j8-142">
          <mxGeometry y="50" width="110" height="20" as="geometry" />
        </mxCell>
        <mxCell id="iTNY1uVTKkM6Jr3xk4j8-147" value="" style="shape=partialRectangle;connectable=0;fillColor=none;top=0;left=0;bottom=0;right=0;editable=1;overflow=hidden;whiteSpace=wrap;html=1;" vertex="1" parent="iTNY1uVTKkM6Jr3xk4j8-146">
          <mxGeometry width="30" height="20" as="geometry">
            <mxRectangle width="30" height="20" as="alternateBounds" />
          </mxGeometry>
        </mxCell>
        <mxCell id="iTNY1uVTKkM6Jr3xk4j8-148" value="cpe" style="shape=partialRectangle;connectable=0;fillColor=none;top=0;left=0;bottom=0;right=0;align=left;spacingLeft=6;overflow=hidden;whiteSpace=wrap;html=1;" vertex="1" parent="iTNY1uVTKkM6Jr3xk4j8-146">
          <mxGeometry x="30" width="80" height="20" as="geometry">
            <mxRectangle width="80" height="20" as="alternateBounds" />
          </mxGeometry>
        </mxCell>
        <mxCell id="iTNY1uVTKkM6Jr3xk4j8-149" value="" style="shape=tableRow;horizontal=0;startSize=0;swimlaneHead=0;swimlaneBody=0;fillColor=none;collapsible=0;dropTarget=0;points=[[0,0.5],[1,0.5]];portConstraint=eastwest;top=0;left=0;right=0;bottom=0;" vertex="1" parent="iTNY1uVTKkM6Jr3xk4j8-142">
          <mxGeometry y="70" width="110" height="20" as="geometry" />
        </mxCell>
        <mxCell id="iTNY1uVTKkM6Jr3xk4j8-150" value="" style="shape=partialRectangle;connectable=0;fillColor=none;top=0;left=0;bottom=0;right=0;editable=1;overflow=hidden;whiteSpace=wrap;html=1;" vertex="1" parent="iTNY1uVTKkM6Jr3xk4j8-149">
          <mxGeometry width="30" height="20" as="geometry">
            <mxRectangle width="30" height="20" as="alternateBounds" />
          </mxGeometry>
        </mxCell>
        <mxCell id="iTNY1uVTKkM6Jr3xk4j8-151" value="cvss_ver3" style="shape=partialRectangle;connectable=0;fillColor=none;top=0;left=0;bottom=0;right=0;align=left;spacingLeft=6;overflow=hidden;whiteSpace=wrap;html=1;" vertex="1" parent="iTNY1uVTKkM6Jr3xk4j8-149">
          <mxGeometry x="30" width="80" height="20" as="geometry">
            <mxRectangle width="80" height="20" as="alternateBounds" />
          </mxGeometry>
        </mxCell>
        <mxCell id="iTNY1uVTKkM6Jr3xk4j8-152" value="" style="shape=tableRow;horizontal=0;startSize=0;swimlaneHead=0;swimlaneBody=0;fillColor=none;collapsible=0;dropTarget=0;points=[[0,0.5],[1,0.5]];portConstraint=eastwest;top=0;left=0;right=0;bottom=0;" vertex="1" parent="iTNY1uVTKkM6Jr3xk4j8-142">
          <mxGeometry y="90" width="110" height="20" as="geometry" />
        </mxCell>
        <mxCell id="iTNY1uVTKkM6Jr3xk4j8-153" value="" style="shape=partialRectangle;connectable=0;fillColor=none;top=0;left=0;bottom=0;right=0;editable=1;overflow=hidden;whiteSpace=wrap;html=1;" vertex="1" parent="iTNY1uVTKkM6Jr3xk4j8-152">
          <mxGeometry width="30" height="20" as="geometry">
            <mxRectangle width="30" height="20" as="alternateBounds" />
          </mxGeometry>
        </mxCell>
        <mxCell id="iTNY1uVTKkM6Jr3xk4j8-154" value="cvss_ver2" style="shape=partialRectangle;connectable=0;fillColor=none;top=0;left=0;bottom=0;right=0;align=left;spacingLeft=6;overflow=hidden;whiteSpace=wrap;html=1;" vertex="1" parent="iTNY1uVTKkM6Jr3xk4j8-152">
          <mxGeometry x="30" width="80" height="20" as="geometry">
            <mxRectangle width="80" height="20" as="alternateBounds" />
          </mxGeometry>
        </mxCell>
        <mxCell id="iTNY1uVTKkM6Jr3xk4j8-155" value="" style="shape=tableRow;horizontal=0;startSize=0;swimlaneHead=0;swimlaneBody=0;fillColor=none;collapsible=0;dropTarget=0;points=[[0,0.5],[1,0.5]];portConstraint=eastwest;top=0;left=0;right=0;bottom=0;" vertex="1" parent="iTNY1uVTKkM6Jr3xk4j8-142">
          <mxGeometry y="110" width="110" height="20" as="geometry" />
        </mxCell>
        <mxCell id="iTNY1uVTKkM6Jr3xk4j8-156" value="" style="shape=partialRectangle;connectable=0;fillColor=none;top=0;left=0;bottom=0;right=0;editable=1;overflow=hidden;whiteSpace=wrap;html=1;" vertex="1" parent="iTNY1uVTKkM6Jr3xk4j8-155">
          <mxGeometry width="30" height="20" as="geometry">
            <mxRectangle width="30" height="20" as="alternateBounds" />
          </mxGeometry>
        </mxCell>
        <mxCell id="iTNY1uVTKkM6Jr3xk4j8-157" value="ttp" style="shape=partialRectangle;connectable=0;fillColor=none;top=0;left=0;bottom=0;right=0;align=left;spacingLeft=6;overflow=hidden;whiteSpace=wrap;html=1;" vertex="1" parent="iTNY1uVTKkM6Jr3xk4j8-155">
          <mxGeometry x="30" width="80" height="20" as="geometry">
            <mxRectangle width="80" height="20" as="alternateBounds" />
          </mxGeometry>
        </mxCell>
        <mxCell id="iTNY1uVTKkM6Jr3xk4j8-160" style="edgeStyle=orthogonalEdgeStyle;rounded=0;orthogonalLoop=1;jettySize=auto;html=1;exitX=0.75;exitY=1;exitDx=0;exitDy=0;exitPerimeter=0;entryX=0.45;entryY=0;entryDx=0;entryDy=0;entryPerimeter=0;" edge="1" parent="1" source="iTNY1uVTKkM6Jr3xk4j8-117">
          <mxGeometry relative="1" as="geometry">
            <mxPoint x="272" y="531" as="targetPoint" />
          </mxGeometry>
        </mxCell>
        <mxCell id="iTNY1uVTKkM6Jr3xk4j8-161" value="SEARCH" style="swimlane;horizontal=0;whiteSpace=wrap;html=1;direction=west;" vertex="1" parent="1">
          <mxGeometry x="200" y="531" width="162" height="100" as="geometry" />
        </mxCell>
      </root>
    </mxGraphModel>
  </diagram>
</mxfile>
